PathFileType	4	(X/Y/Z)	32_2_57_p1_0-610_filt_butterworth.trc
DataRate	CameraRate	NumFrames	NumMarkers	Units	OrigDataRate	OrigDataStartFrame	OrigNumFrames
59.0	59.0	7	27	m	59.0	305	610
Frame#	Time	RHip			RKnee			RAnkle			RBigToe			RSmallToe			RHeel			LHip			LKnee			LAnkle			LBigToe			LSmallToe			LHeel			Neck			Head			Nose			RShoulder			RElbow			RWrist			RThumb			RIndex			RPinky			LShoulder			LElbow			LWrist			LThumb			LIndex			LPinky			
		X1	Y1	Z1	X2	Y2	Z2	X3	Y3	Z3	X4	Y4	Z4	X5	Y5	Z5	X6	Y6	Z6	X7	Y7	Z7	X8	Y8	Z8	X9	Y9	Z9	X10	Y10	Z10	X11	Y11	Z11	X12	Y12	Z12	X13	Y13	Z13	X14	Y14	Z14	X15	Y15	Z15	X16	Y16	Z16	X17	Y17	Z17	X18	Y18	Z18	X19	Y19	Z19	X20	Y20	Z20	X21	Y21	Z21	X22	Y22	Z22	X23	Y23	Z23	X24	Y24	Z24	X25	Y25	Z25	X26	Y26	Z26	X27	Y27	Z27	
305	5.169491525423729	0.3471356966531316	0.9785864257588686	0.37527745055976314	0.3403788340738444	0.5366233981547333	0.4614040052465154	0.3365358994105706	0.13466680053923696	0.5224237232205645	0.3146971342059944	0.11502591619344558	0.3501502449049081	0.3779143271301055	0.13090713971619333	0.3447767623136831	0.30573313919830253	0.047328623975518604	0.6185500956135138	0.16088095206882266	0.9643193526794802	0.40493630622567195	0.14023351292184758	0.5400445730985746	0.47886407570786094	0.1284373935648973	0.12247057978677961	0.4971715152799104	0.14733207105820117	0.15250221833259867	0.2901592539410221	0.09466988334230969	0.12053870620537424	0.3558595833427026	0.14082163228212904	0.06457447770790338	0.5401689660801955	0.22567748573232124	1.5130510604723584	0.373662027124325	0.20423803582354846	1.7408919638497242	0.3072906365587177	0.19957347012608312	1.6270127818119733	0.2678250353715899	0.37242851857473364	1.4495890876816382	0.3716354351293613	0.5064806399103416	1.2259781602927868	0.36640167321928946	0.4095209543741334	1.3136440139844796	0.12757348982228206	0.33575872415890373	1.3844321688122323	0.0655696570999805	0.3286331975866039	1.365107278641307	0.05344358038548081	0.3274658384156728	1.3016577962945164	0.06769757317383837	0.0780394230233608	1.4185351488289	0.4288221642256606	0.0421689655275107	1.1927511400204	0.49966828767288357	0.03376823839501451	1.121031898229872	0.3015138712026776	0.05849013014294706	1.1417199149922908	0.17672259194289153	0.047415838311208935	1.1095850784749386	0.1615026168248174	0.03672383543484717	1.0507167037400043	0.2455987340316531	
306	5.186440677966102	0.34645006429606034	0.9783660988651077	0.3757698303616444	0.34027183962750457	0.5360400982877398	0.46174043055747793	0.33653477876263344	0.13451674057820479	0.5226427948280099	0.3146773257855854	0.11574227774674536	0.35008929333329675	0.37793071873998796	0.1309806007206848	0.34467458439076953	0.30573744482201076	0.047311995069631435	0.618532752609489	0.16032612470462648	0.9649114209624465	0.4057528937792149	0.14021653647144408	0.5402042535568707	0.47902362227981987	0.12848625041725736	0.1221649053468909	0.4972834149450799	0.14694775289293632	0.15436738166095368	0.28711789663769666	0.09502156103183096	0.12109724380916127	0.3549147610429444	0.14086874462239074	0.06514213000008946	0.540249040049861	0.2251146254758885	1.513056629499084	0.3727850362082662	0.20348733674112585	1.7416985724736356	0.30697237441934977	0.1992365804772837	1.627367842694154	0.2663712468501747	0.37327349130323717	1.4502391716694238	0.37165154166272274	0.5070397325695007	1.2301636749591267	0.3679793279809663	0.4084199323307663	1.305626226807623	0.12983484926101999	0.32654957001149665	1.3695470990390755	0.0679722524846807	0.3220803753351691	1.353033133285697	0.057354425951858516	0.32489844341600105	1.2890456635588141	0.07336109633428947	0.07759906961329266	1.41881875850075	0.42681871932670234	0.040363638610638075	1.1933050943370986	0.50132237789671	0.03062565336373429	1.1245857200133051	0.2966329324072047	0.05586215223894248	1.143395509797086	0.18031266317541556	0.04166299564378441	1.1169541962125118	0.1574228913078332	0.03558230512306694	1.053623108311339	0.2407825437616849	
307	5.203389830508475	0.3457609672238295	0.9783134187200871	0.3759183255280438	0.34015163292096207	0.5356509699497497	0.4620445434060093	0.33654544951073184	0.13424167330710463	0.5230820104103295	0.3147354425487385	0.11684436031327956	0.34960350887907	0.3780510438894542	0.13129961211729949	0.34417945744917194	0.30573653617879637	0.04730560683900002	0.6185053600096695	0.15981894469209115	0.9655628771355064	0.40677345999217	0.14022796211885352	0.5401667761180721	0.4792351982112475	0.1285648336067101	0.12164332741791971	0.4974652242736257	0.14642739003102132	0.15613721915458537	0.28422621955683347	0.09502192412644958	0.12111360394886121	0.3548850487869156	0.14091823824376398	0.06577913829013014	0.5403482862817786	0.22464296231897607	1.5129683354676335	0.3732008297941742	0.20287662545948495	1.74263771184913	0.3066746443171027	0.19862817956875156	1.62754491776799	0.26443091184184137	0.37389990870805023	1.450680570510832	0.3715821233160947	0.5083534991595219	1.233497229823014	0.36886793793086264	0.4061903052105995	1.2956940449555348	0.13426064026726803	0.3179526109274232	1.3545662775876584	0.07075243788571028	0.31549230813055457	1.3401915023513533	0.06023667938887094	0.32296545816510824	1.276507778195446	0.07923367236027691	0.07689933241673971	1.4192736928233156	0.42355673166681157	0.03817079887263736	1.1944576625015084	0.5021902528501797	0.027889957050875852	1.1290176000393486	0.2917952338007559	0.052656678638910506	1.1448549199737712	0.1865469944476702	0.03528102027963052	1.1255780593958515	0.1532787547379169	0.03377625787375632	1.0579797289027537	0.23263398959633658	
308	5.220338983050848	0.3450961243897119	0.9783160252320726	0.37585901068526867	0.33993688177622916	0.535535367104101	0.46204412745517476	0.33656261231539275	0.13404825828476016	0.5233984790244721	0.31495346128125296	0.11855857720648168	0.3482267901277195	0.37839104207308893	0.13212047261657628	0.34290058868413703	0.30573360661883814	0.04734114962488827	0.6184778161293806	0.1592584497677045	0.9661120553782664	0.4078963861266295	0.14026951478978655	0.5399184249702804	0.4794971183974185	0.12866951406700095	0.12092139005829376	0.4977115097701947	0.14587838388447577	0.15712218137532658	0.2825804816753446	0.09470806397610919	0.12061888133565572	0.3556651416977016	0.1409677978038114	0.06649615495987296	0.5404725927540491	0.22434075180104768	1.512792353568155	0.3747853210858305	0.20229936644355123	1.7436201099682564	0.30609485917533574	0.19772231655142308	1.627654195966707	0.2622201152168736	0.3742400950146808	1.4508317946064901	0.3714236063304198	0.5102417103628514	1.2355472131123713	0.36904800868398	0.4029152875025968	1.28429651092066	0.1411966579669343	0.3108378234877208	1.3398123475562433	0.07394656042904652	0.3095132930693548	1.3266198932528919	0.06210057298195504	0.3215717552166636	1.2640424208118215	0.08526387173205993	0.07601733433813732	1.4198505784378341	0.4194097665699008	0.03578851190683893	1.1964783955738705	0.5016668378074758	0.025808391122463102	1.1340816354956245	0.28749083853929475	0.048633292693229815	1.1470873179881136	0.19477786587843987	0.028635845900850294	1.134923375752325	0.14955534014888724	0.03127572208256296	1.0639860494570241	0.22216505078886772	
309	5.237288135593221	0.3444757355392259	0.9782449412415055	0.3759410822615253	0.33960024521566623	0.5356113836849785	0.46166840955463667	0.33657378697262863	0.13401135878122317	0.5234979361262743	0.3153502566637364	0.12080556075813909	0.34590894396304617	0.37897828034513104	0.13348846482180765	0.34076322034862705	0.30572563784744194	0.047428923650093366	0.6184677233255126	0.15853766635149416	0.9663925939705953	0.40909000552243335	0.14033644970392328	0.5394899225380414	0.4797963321669637	0.12878381659759677	0.12010971735198894	0.4979877209733977	0.1453117520619053	0.15676348803747706	0.2830619291413602	0.09413599296476804	0.11968558246784859	0.35710985814776963	0.14101526108137125	0.06731429998259648	0.5406247693893103	0.22412416110012667	1.5125730122377468	0.3768522828191121	0.201704740874166	1.744517620571154	0.3050441220262951	0.19660623299410088	1.6277659808965212	0.26002721861784395	0.3742642266507443	1.4507666463816287	0.3711898604234893	0.5123956878052843	1.2365089592754634	0.3686090667261699	0.39884832814123394	1.2721975972780541	0.15026361589184714	0.3057306783680974	1.325459460240066	0.07726319025919239	0.3047638294967191	1.3121498365299902	0.06353652423589556	0.32046136422384663	1.2509555293825692	0.09154277949482172	0.0750740665012255	1.4204684312430387	0.4149794148080375	0.033547066268411814	1.1992201954815875	0.49965983118376245	0.024296266354626235	1.139498040015614	0.28431994578921604	0.043436327812435206	1.1513621497787834	0.20348879917435572	0.022140559076360204	1.1442596885379397	0.14672825089516522	0.027938343650993284	1.0718881579514958	0.2111149020961648	
310	5.254237288135593	0.3438823505634624	0.9779974283500541	0.3764292549388236	0.3391601146228915	0.5357574052953705	0.4610028173538449	0.3365552991976689	0.13412433996373072	0.5234305052555213	0.3159232353328021	0.12313365169806485	0.3429795019393725	0.3797379319434725	0.13524004681320567	0.3379858316662953	0.3057055686748695	0.04752976295200673	0.6184761025340177	0.15761489279875998	0.966293240065452	0.41039875749558463	0.1404168389939438	0.5389610044091834	0.480106068941321	0.12888585176443665	0.11936603662428916	0.4982450426145415	0.1447432872282131	0.15495610676547122	0.2858427552715036	0.09344610619359901	0.11853736207451189	0.358865968303891	0.14106073454225457	0.06821683123818793	0.5407966231700027	0.22381974202757224	1.5124015949895802	0.37842034730517093	0.2011199227541865	1.7452396066349185	0.3035615672752162	0.19543848441258038	1.6278828419921263	0.25817015147918254	0.37404969775656904	1.4506454642465088	0.37094668518284807	0.5144490029718569	1.2370105441660328	0.3678510684603034	0.39433259317479624	1.2603338595152038	0.1606474746128008	0.3026873356459462	1.3116217056157058	0.08009975380191614	0.3015903037878318	1.2968650385987575	0.06513705795402443	0.31936602154977456	1.2364362682561985	0.09804475472773272	0.0742001809210625	1.4210293720014315	0.4109123100628264	0.031738741249873345	1.2022451511913435	0.4966536262146995	0.022910840987929032	1.1451669839054854	0.2826770489333816	0.03680679302228578	1.158795823519447	0.21038955472905968	0.016146647160427238	1.153124953591406	0.14512021833264052	0.023376332435258156	1.08202201960069	0.20083037136489962	
311	5.271186440677966	0.3432879889005714	0.9775186797717668	0.37738809494911996	0.33864297869088494	0.5359223534732294	0.4601470854146949	0.3364872753362143	0.13436139318415843	0.523221609498298	0.31665046513802364	0.12507550192163636	0.33987175635443134	0.38055063346425266	0.13715169394843624	0.3348744208863769	0.3056706529799494	0.047563344733239	0.6184835104716336	0.15653492509655512	0.9657762016048302	0.4119036731412551	0.14049793577365785	0.5384133699568189	0.4803979528238918	0.12896146356184574	0.1187984183594134	0.4984506308254889	0.14421087492933438	0.15203795166077236	0.2904040498055204	0.09288694435639204	0.1175820216047083	0.3603068364051287	0.14110478888166572	0.0691181216070982	0.5409721742862689	0.22334486394301328	1.5123522911486742	0.37881244035976713	0.20055163991664648	1.74578009950113	0.3017940910427436	0.1943820059183951	1.6279640890330713	0.2569131148976426	0.37379504935263397	1.450513187215395	0.37079720512134773	0.5159025787717743	1.2374854621130247	0.3671900258776709	0.389718576919616	1.2495162415476018	0.17150893481165047	0.30122869622903065	1.2984347446998539	0.08208196882029534	0.29994057690397086	1.2814310267917306	0.06706689384581588	0.3181085061962435	1.2203859303953586	0.1047814591611563	0.07351264373831591	1.421433442874343	0.4077733573723591	0.03048643071026781	1.205041866049984	0.4934253736038055	0.02121810648374838	1.1513385986446336	0.2823952134653238	0.028907577989817274	1.1698985375634143	0.21318586774142673	0.010812447504824494	1.1618047924313697	0.14469551646128975	0.017441523821053125	1.0944741911609164	0.1920340062426418	
